<svg width="10" height="12" viewBox="0 0 10 12" fill="none" xmlns="http://www.w3.org/2000/svg">
<path d="M1.97338 0.860039C1.71338 0.600039 1.29338 0.600039 1.03338 0.860039C0.773379 1.12004 0.773379 1.54004 1.03338 1.80004L5.22671 5.99337L1.03338 10.1867C0.773379 10.4467 0.773379 10.8667 1.03338 11.1267C1.16671 11.26 1.33338 11.32 1.50671 11.32C1.68005 11.32 1.84671 11.2534 1.98005 11.1267L6.64671 6.46004C6.90671 6.20004 6.90671 5.78004 6.64671 5.52004L1.97338 0.860039ZM8.83338 0.666706C8.46671 0.666706 8.16671 0.966706 8.16671 1.33337V10.6667C8.16671 11.0334 8.46671 11.3334 8.83338 11.3334C9.20005 11.3334 9.50005 11.0334 9.50005 10.6667V1.33337C9.50005 0.966706 9.20005 0.666706 8.83338 0.666706Z" fill="#0e3cc8"/>
</svg>
