<svg width="10" height="12" viewBox="0 0 10 12" fill="none" xmlns="http://www.w3.org/2000/svg">
<path d="M1.16667 0.666748C0.8 0.666748 0.5 0.966748 0.5 1.33341V10.6667C0.5 11.0334 0.8 11.3334 1.16667 11.3334C1.53333 11.3334 1.83333 11.0334 1.83333 10.6667V1.33341C1.83333 0.966748 1.53333 0.666748 1.16667 0.666748ZM4.77333 6.00008L8.96667 1.80675C9.22667 1.54675 9.22667 1.12675 8.96667 0.866748C8.70667 0.606748 8.28667 0.606748 8.02667 0.866748L3.36 5.53341C3.1 5.79341 3.1 6.21341 3.36 6.47341L8.02667 11.1401C8.16 11.2734 8.32667 11.3334 8.5 11.3334C8.67333 11.3334 8.84 11.2667 8.97333 11.1401C9.23333 10.8801 9.23333 10.4601 8.97333 10.2001L4.78 6.00675L4.77333 6.00008Z" fill="#0e3cc8"/>
</svg>
