<svg width="12" height="12" viewBox="0 0 12 12" fill="none" xmlns="http://www.w3.org/2000/svg">
<path d="M4.50009 9.50205C4.43429 9.50243 4.36906 9.48981 4.30814 9.46493C4.24722 9.44005 4.19181 9.40339 4.14509 9.35705L1.64509 6.85705C1.55094 6.76289 1.49805 6.6352 1.49805 6.50205C1.49805 6.3689 1.55094 6.2412 1.64509 6.14705C1.73924 6.05289 1.86694 6 2.00009 6C2.13324 6 2.26094 6.05289 2.35509 6.14705L4.50009 8.29705L9.64509 3.14705C9.73924 3.05289 9.86694 3 10.0001 3C10.1332 3 10.2609 3.05289 10.3551 3.14705C10.4492 3.2412 10.5021 3.3689 10.5021 3.50205C10.5021 3.6352 10.4492 3.76289 10.3551 3.85705L4.85509 9.35705C4.80837 9.40339 4.75296 9.44005 4.69205 9.46493C4.63113 9.48981 4.5659 9.50243 4.50009 9.50205Z" fill="white"/>
</svg>
