<svg width="18" height="19" viewBox="0 0 18 19" fill="none" xmlns="http://www.w3.org/2000/svg">
<path d="M10.5 12H9.5V10C9.5 9.73478 9.39464 9.48043 9.20711 9.29289C9.01957 9.10536 8.76522 9 8.5 9C8.23478 9 7.98043 9.10536 7.79289 9.29289C7.60536 9.48043 7.5 9.73478 7.5 10V13C7.5 13.2652 7.60536 13.5196 7.79289 13.7071C7.98043 13.8946 8.23478 14 8.5 14H10.5C10.7652 14 11.0196 13.8946 11.2071 13.7071C11.3946 13.5196 11.5 13.2652 11.5 13C11.5 12.7348 11.3946 12.4804 11.2071 12.2929C11.0196 12.1054 10.7652 12 10.5 12ZM15 1H14C14 0.734784 13.8946 0.48043 13.7071 0.292893C13.5196 0.105357 13.2652 0 13 0C12.7348 0 12.4804 0.105357 12.2929 0.292893C12.1054 0.48043 12 0.734784 12 1H6C6 0.734784 5.89464 0.48043 5.70711 0.292893C5.51957 0.105357 5.26522 0 5 0C4.73478 0 4.48043 0.105357 4.29289 0.292893C4.10536 0.48043 4 0.734784 4 1H3C2.20435 1 1.44129 1.31607 0.87868 1.87868C0.316071 2.44129 0 3.20435 0 4V16C0 16.7956 0.316071 17.5587 0.87868 18.1213C1.44129 18.6839 2.20435 19 3 19H15C15.7956 19 16.5587 18.6839 17.1213 18.1213C17.6839 17.5587 18 16.7956 18 16V4C18 3.20435 17.6839 2.44129 17.1213 1.87868C16.5587 1.31607 15.7956 1 15 1ZM9 17C8.01109 17 7.04439 16.7068 6.22215 16.1573C5.3999 15.6079 4.75904 14.827 4.3806 13.9134C4.00216 12.9998 3.90315 11.9945 4.09607 11.0245C4.289 10.0546 4.7652 9.16373 5.46447 8.46447C6.16373 7.7652 7.05464 7.289 8.02455 7.09607C8.99445 6.90315 9.99979 7.00216 10.9134 7.3806C11.827 7.75904 12.6079 8.3999 13.1573 9.22215C13.7068 10.0444 14 11.0111 14 12C14 13.3261 13.4732 14.5979 12.5355 15.5355C11.5979 16.4732 10.3261 17 9 17ZM16 5H2V4C2 3.73478 2.10536 3.48043 2.29289 3.29289C2.48043 3.10536 2.73478 3 3 3H4C4 3.26522 4.10536 3.51957 4.29289 3.70711C4.48043 3.89464 4.73478 4 5 4C5.26522 4 5.51957 3.89464 5.70711 3.70711C5.89464 3.51957 6 3.26522 6 3H12C12 3.26522 12.1054 3.51957 12.2929 3.70711C12.4804 3.89464 12.7348 4 13 4C13.2652 4 13.5196 3.89464 13.7071 3.70711C13.8946 3.51957 14 3.26522 14 3H15C15.2652 3 15.5196 3.10536 15.7071 3.29289C15.8946 3.48043 16 3.73478 16 4V5Z" fill="black" fill-opacity="0.65"/>
</svg>
