<svg width="9" height="13" viewBox="0 0 9 13" fill="none" xmlns="http://www.w3.org/2000/svg">
<path d="M0.903502 9.42017L4.23684 12.7535C4.3143 12.8316 4.40647 12.8936 4.50802 12.9359C4.60957 12.9782 4.71849 13 4.8285 13C4.93851 13 5.04743 12.9782 5.14898 12.9359C5.25053 12.8936 5.3427 12.8316 5.42017 12.7535L8.7535 9.42017C8.83161 9.3427 8.8936 9.25053 8.93591 9.14898C8.97822 9.04743 9 8.93851 9 8.8285C9 8.71849 8.97822 8.60957 8.93591 8.50802C8.8936 8.40647 8.83161 8.3143 8.7535 8.23683C8.67603 8.15873 8.58386 8.09673 8.48231 8.05443C8.38077 8.01212 8.27184 7.99034 8.16183 7.99034C8.05182 7.99034 7.9429 8.01212 7.84135 8.05443C7.7398 8.09673 7.64764 8.15873 7.57017 8.23683L5.66183 10.1535L5.66183 1.3285C5.66183 1.10749 5.57404 0.895525 5.41776 0.739245C5.26148 0.582964 5.04951 0.495168 4.8285 0.495168C4.60749 0.495168 4.39552 0.582964 4.23924 0.739245C4.08296 0.895525 3.99517 1.10749 3.99517 1.3285L3.99517 10.1535L2.08683 8.23684C1.92991 8.07992 1.71709 7.99176 1.49517 7.99176C1.27325 7.99176 1.06042 8.07992 0.903502 8.23684C0.746583 8.39376 0.658425 8.60658 0.658425 8.8285C0.658425 9.05042 0.746583 9.26325 0.903502 9.42017Z" fill="#373737"/>
</svg>
