<svg width="9" height="13" viewBox="0 0 9 13" fill="none" xmlns="http://www.w3.org/2000/svg">
<path d="M8.0965 3.57983L4.76316 0.246499C4.6857 0.168392 4.59353 0.106397 4.49198 0.0640893C4.39043 0.0217821 4.28151 0 4.1715 0C4.06149 0 3.95257 0.0217821 3.85102 0.0640893C3.74947 0.106397 3.6573 0.168392 3.57983 0.246499L0.246499 3.57983C0.168392 3.6573 0.106397 3.74947 0.0640898 3.85102C0.0217825 3.95257 0 4.06149 0 4.1715C0 4.28151 0.0217825 4.39043 0.0640898 4.49198C0.106397 4.59353 0.168392 4.6857 0.246499 4.76317C0.323968 4.84127 0.416136 4.90327 0.517685 4.94557C0.619234 4.98788 0.728155 5.00966 0.838165 5.00966C0.948175 5.00966 1.0571 4.98788 1.15865 4.94557C1.2602 4.90327 1.35236 4.84127 1.42983 4.76317L3.33817 2.8465V11.6715C3.33817 11.8925 3.42596 12.1045 3.58224 12.2608C3.73852 12.417 3.95049 12.5048 4.1715 12.5048C4.39251 12.5048 4.60448 12.417 4.76076 12.2608C4.91704 12.1045 5.00483 11.8925 5.00483 11.6715V2.8465L6.91317 4.76317C7.07009 4.92009 7.28291 5.00824 7.50483 5.00824C7.72675 5.00824 7.93958 4.92009 8.0965 4.76317C8.25342 4.60625 8.34157 4.39342 8.34157 4.1715C8.34157 3.94958 8.25342 3.73675 8.0965 3.57983Z" fill="#373737"/>
</svg>
