<?xml version="1.0" encoding="UTF-8" standalone="no"?>
<!-- Created with Inkscape (http://www.inkscape.org/) -->

<svg
   version="1.1"
   id="svg1"
   width="561.06927"
   height="833.16864"
   viewBox="0 0 561.06927 833.16864"
   sodipodi:docname="32b.svg"
   inkscape:version="1.3.2 (091e20ef0f, 2023-11-25)"
   xmlns:inkscape="http://www.inkscape.org/namespaces/inkscape"
   xmlns:sodipodi="http://sodipodi.sourceforge.net/DTD/sodipodi-0.dtd"
   xmlns="http://www.w3.org/2000/svg"
   xmlns:svg="http://www.w3.org/2000/svg">
  <defs
     id="defs1" />
  <sodipodi:namedview
     id="namedview1"
     pagecolor="#ffffff"
     bordercolor="#000000"
     borderopacity="0.25"
     inkscape:showpageshadow="2"
     inkscape:pageopacity="0.0"
     inkscape:pagecheckerboard="0"
     inkscape:deskcolor="#d1d1d1"
     showgrid="false"
     inkscape:zoom="0.86621236"
     inkscape:cx="280.53167"
     inkscape:cy="441.57763"
     inkscape:window-width="1920"
     inkscape:window-height="1011"
     inkscape:window-x="0"
     inkscape:window-y="0"
     inkscape:window-maximized="1"
     inkscape:current-layer="layer1" />
  <g
     inkscape:groupmode="layer"
     id="layer1"
     inkscape:label="Layer 1"
     transform="translate(-19.092223,-22.745815)">
    <path
       style="fill:#000000"
       d="m 236.66667,854.19726 c -2.36566,-1.76751 -2.65413,-3.47138 -2.55559,-15.09484 0.0977,-11.52297 0.61964,-14.33365 4.32986,-23.31589 5.37801,-13.01986 8.32712,-25.66177 14.10258,-60.45321 10.89431,-65.62757 13.82331,-92.16651 10.53498,-95.45483 -1.22116,-1.22116 -5.17864,-0.0302 -17.33052,5.21526 -27.62603,11.92511 -52.69402,15.91915 -73.47977,11.70742 -29.739,-6.02589 -55.18042,-17.59802 -79.543551,-36.18068 -6.120548,-4.66837 -29.71839,-31.24026 -35.830842,-40.34662 -2.8084,-4.18397 -6.556145,-9.13769 -8.328321,-11.00828 -1.772177,-1.87058 -4.645207,-6.97058 -6.384512,-11.33333 -1.739305,-4.36275 -5.627499,-13.47723 -8.640432,-20.25441 -6.743237,-15.16798 -10.100813,-28.03203 -12.966145,-49.67786 -6.27382,-47.39488 7.948781,-106.66085 31.711945,-132.14454 2.779841,-2.98111 5.431054,-6.92149 5.891586,-8.75639 1.403907,-5.59361 -0.382871,-16.48462 -4.77399,-29.09907 -7.070298,-20.31097 -12.396443,-43.14065 -12.442622,-53.33333 -0.03374,-7.44634 1.491552,-14.68187 7.544279,-35.78792 8.520308,-29.71058 13.996498,-41.8545 26.142764,-57.97381 17.535254,-23.27104 38.558811,-36.02084 64.182171,-38.9235 6.66613,-0.75515 13.20074,-1.95126 14.52136,-2.65803 1.32061,-0.70678 4.82816,-6.24367 7.79455,-12.30422 9.21417,-18.8252 19.54375,-36.54762 25.33016,-43.458851 3.05121,-3.644325 6.43354,-8.746286 7.51629,-11.33769 2.34188,-5.604888 20.7551,-25.277863 33.93459,-36.256241 7.33565,-6.11052 12.82555,-9.211638 25.06601,-14.159234 8.62024,-3.4843 19.87317,-7.046965 25.0065,-7.917034 19.04481,-3.227981 48.60859,0.631832 63.80301,8.330047 10.11637,5.125429 28.23665,18.27595 39.13941,28.404824 12.04972,11.194426 33.03831,41.087289 46.32246,65.974459 8.07457,15.12729 11.90385,20.0672 15.55552,20.0672 1.29555,0 2.67469,0.51637 3.06474,1.14749 0.78106,1.26377 14.50476,5.35773 20.5062,6.11725 5.5834,0.70662 20.22116,5.40273 27.48932,8.81917 14.66457,6.89316 41.83529,46.89254 49.93981,73.51889 8.67882,28.5131 6.43307,82.45103 -4.60951,110.71038 -5.46354,13.98188 -5.68636,12.88774 5.50256,27.02015 13.96369,17.63713 29.53259,53.95199 33.43427,77.98628 7.24334,44.61881 -5.5548,103.79893 -30.34029,140.29719 -2.95646,4.35357 -7.09418,11.37985 -9.19494,15.61396 -4.14894,8.36225 -12.65929,16.93469 -31.13234,31.3595 C 472.26785,666.75274 448.19207,675.29684 406,675.2706 c -28.61005,-0.0178 -41.19234,-3.10938 -54.79252,-13.46299 -5.58552,-4.25218 -9.57918,-4.11378 -10.70478,0.37096 -2.29777,9.15505 2.68962,47.09065 12.29334,93.50687 15.87506,76.72651 17.82762,86.55406 17.84837,89.8335 0.0122,1.93542 -1.12444,4.93542 -2.52596,6.66666 l -2.54822,3.14771 -63.11845,0.42819 c -54.38127,0.36891 -63.48758,0.15238 -65.78511,-1.56424 z"
       id="path1" />
    <path
       style="fill:#00aa00"
       d="m 211.09917,664.67021 c 19.50672,-3.40169 38.80371,-12.31032 50.24889,-23.19785 5.20351,-4.94999 5.31839,-5.2587 5.30853,-14.26593 -0.0469,-42.88284 -23.79547,-82.56305 -62.302,-104.09713 -15.55867,-8.70091 -43.16029,-20.49167 -66.95464,-28.60146 -25.30901,-8.62602 -50.733283,-20.14791 -50.733283,-22.99153 0,-2.60102 4.448816,-6.18403 10.245072,-8.25124 13.200571,-4.70791 56.459241,0.47725 91.088261,10.91821 19.3967,5.84828 42.0667,17.91707 65.87152,35.06789 11.93389,8.5981 18.9792,12.5378 20.61416,11.52734 4.53954,-2.80559 -21.29801,-100.03404 -32.41081,-121.96411 -1.82414,-3.59975 -5.07117,-9.15562 -7.21563,-12.34637 -2.14446,-3.19076 -7.65914,-12.70137 -12.25485,-21.1347 -19.384,-35.57056 -40.04058,-63.33164 -73.25564,-98.45077 -11.37515,-12.02723 -22.16909,-23.95391 -23.98653,-26.50373 -3.26486,-4.58049 -3.27285,-4.65935 -0.66667,-6.58183 3.65382,-2.69528 10.06508,-1.31202 20.63778,4.4527 27.91509,15.22057 71.47843,59.11702 116.13467,117.02269 l 15.16239,19.66104 0.89622,-4.46672 c 2.0166,-10.0506 3.9325,-55.05921 5.16066,-121.23528 1.66396,-89.65814 3.43675,-112.58197 9.4742,-122.50976 3.40537,-5.59968 6.35508,-6.53135 9.27234,-2.92869 6.75372,8.34048 10.31859,51.4071 13.92347,168.20701 2.32,75.16939 2.69369,81.33334 4.93087,81.33334 2.51843,0 10.69215,-9.55182 24.61781,-28.76837 7.39942,-10.21073 18.05378,-23.96497 23.67637,-30.56497 14.45947,-16.97305 51.484,-54.08916 63.84215,-64.00007 17.37604,-13.93512 33.1196,-20.51866 38.84958,-16.24587 2.53033,1.88684 2.44629,2.15566 -2.84346,9.09512 -2.99798,3.93296 -13.70714,16.15082 -23.79813,27.15082 -39.06866,42.58801 -59.28014,71.49141 -79.92569,114.29761 -12.03117,24.9453 -20.69113,48.67671 -27.38168,75.03572 -5.39221,21.24388 -12.64336,60.45952 -11.40772,61.69516 1.36406,1.36406 7.99471,-2.53109 22.08262,-12.97236 31.57995,-23.40551 65.0405,-37.72233 104.72041,-44.8069 15.70811,-2.80456 47.66445,-3.24279 56.27959,-0.77177 14.36372,4.11984 0.65808,13.9828 -41,29.50475 -96.57161,35.98293 -123.17109,60.94128 -132.59605,124.41515 -2.66111,17.92164 -1.83295,20.52044 8.85145,27.77607 12.7713,8.67283 27.41219,15.57072 38.09255,17.94687 12.96887,2.8853 51.11111,2.01279 64.31872,-1.4713 10.47579,-2.76346 28.16809,-10.80183 36.7105,-16.67916 10.43185,-7.1773 25.68548,-21.1052 35.86109,-32.74432 49.25402,-56.33792 62.95364,-129.2053 36.66782,-195.03363 -5.53887,-13.87116 -14.59848,-29.01635 -26.34917,-44.04864 l -9.8267,-12.57098 6.7931,-14.11947 c 9.49388,-19.73304 12.24138,-31.23237 13.10968,-54.86906 1.19219,-32.45327 -4.26738,-54.97903 -19.58146,-80.7916 -17.04175,-28.72462 -35.17648,-42.2288 -64.13279,-47.75701 -18.19998,-3.47466 -22.16881,-4.78735 -25.72879,-8.50981 C 428.33566,151.58639 421.32177,139.5 414.60352,126.66666 398.22888,95.387475 393.12739,88.041487 376.97744,72.486295 355.90901,52.193755 336.12223,40.295246 314.12005,34.687865 295.38879,29.914096 279.26187,32.026944 259.33333,41.865678 224.49972,59.063057 198.59718,89.165773 171.16279,144.33333 l -9.11702,18.33333 h -12.07609 c -21.46249,0 -38.97902,7.02529 -54.292441,21.77486 -26.075083,25.11499 -39.522359,63.13217 -37.988676,107.3989 0.775613,22.38652 2.905446,31.78175 12.273671,54.14227 C 73.283005,353.90886 76,360.91698 76,361.55628 c 0,0.63931 -5.085005,8.63417 -11.300011,17.76637 -25.231694,37.07489 -34.638847,65.35739 -34.595401,104.01067 0.04384,39.00522 11.3044,74.02191 34.568606,107.49716 10.623294,15.28603 39.675616,44.02147 54.235406,53.64383 29.00219,19.16715 59.62313,25.87518 92.19057,20.1959 z"
       id="path3" />
    <path
       style="fill:#aa4400"
       d="m 346.49261,841.80378 9.82594,-0.88394 -0.86963,-7.39925 c -0.4783,-4.06958 -3.8216,-20.92655 -7.42955,-37.45993 -19.778,-90.63238 -25.30705,-150.87651 -17.87156,-194.72734 3.62319,-21.3678 9.56456,-35.51914 21.36239,-50.88162 17.40213,-22.66009 53.41889,-44.87032 101.15647,-62.37953 33.55489,-12.30727 46.24588,-17.69296 44.88917,-19.04967 -2.30275,-2.30276 -51.69568,3.22184 -68.92332,7.70907 -16.91495,4.40579 -44.8575,17.66607 -64.51195,30.61447 -5.15764,3.39788 -15.74546,11.98505 -23.52848,19.08262 -15.42972,14.07081 -19.927,17.35406 -21.53819,15.72398 -1.35449,-1.37036 -0.78788,-23.00067 1.05179,-40.15265 4.10228,-38.24715 17.3142,-80.76618 38.53046,-124 20.85882,-42.50543 41.6762,-72.21765 78.00386,-111.33333 14.85539,-15.99549 19.64226,-22.66667 16.26436,-22.66667 -2.78294,0 -19.78982,15.12031 -36.90825,32.81403 -28.28711,29.23773 -47.32366,51.135 -75.3029,86.619 -15.58111,19.76037 -24.40715,29.9003 -26.02596,29.9003 -3.69951,0 -10.12705,-103.4823 -11.91188,-191.77932 -1.03996,-51.44808 -1.77343,-60.31373 -4.74407,-57.34309 -2.55417,2.55417 -5.16886,50.31337 -7.36109,134.45575 -1.90072,72.95376 -3.73926,112.28904 -5.32241,113.87219 -1.94775,1.94775 -11.06446,-8.14411 -34.22824,-37.88941 -22.87878,-29.37933 -45.04007,-54.02704 -71.20542,-79.19444 -26.87594,-25.85089 -42.33807,-37.54442 -45.48421,-34.39828 -0.82264,0.82265 1.22901,3.37734 5.71275,7.11346 14.11076,11.75792 21.86623,19.50975 35.17961,35.16315 45.65321,53.67742 69.6325,95.08909 89.32613,154.26412 12.65806,38.03468 18.40614,67.8701 17.75709,92.16808 L 282,544.19775 263.33333,528.63004 c -38.50598,-32.11338 -65.52323,-46.09263 -104,-53.81161 -15.97407,-3.20462 -44.95487,-5.99652 -48.98109,-4.71865 l -2.88078,0.91433 2.97451,2.40861 c 1.63598,1.32474 10.3049,5.22281 19.26427,8.66238 37.48074,14.38915 47.69094,18.62438 61.62309,25.5615 39.33762,19.58706 64.11718,43.47722 75.37494,72.66955 5.73589,14.87368 7.14594,35.10772 6.11246,87.71325 -1.13116,57.57792 -1.78944,62.53591 -19.44987,146.49223 -2.99127,14.22025 -5.25144,26.04222 -5.0226,26.27106 2.77289,2.77289 10.60942,3.19655 47.65174,2.57614 22.36667,-0.37462 45.08834,-1.07889 50.49261,-1.56505 z"
       id="path2" />
  </g>
</svg>
